<svg id="visual" viewBox="0 0 900 600" width="900" height="600" xmlns="http://www.w3.org/2000/svg" xmlns:xlink="http://www.w3.org/1999/xlink" version="1.1"><rect x="0" y="0" width="900" height="600" fill="#7F938C"></rect><path d="M0 258L5.3 268.3C10.7 278.7 21.3 299.3 32 311.5C42.7 323.7 53.3 327.3 64 333.3C74.7 339.3 85.3 347.7 96.2 332.8C107 318 118 280 128.8 262.2C139.7 244.3 150.3 246.7 161 251.8C171.7 257 182.3 265 193 282.3C203.7 299.7 214.3 326.3 225 329.5C235.7 332.7 246.3 312.3 257 293.8C267.7 275.3 278.3 258.7 289 266.3C299.7 274 310.3 306 321.2 317C332 328 343 318 353.8 311.5C364.7 305 375.3 302 386 309C396.7 316 407.3 333 418 341.2C428.7 349.3 439.3 348.7 450 337.8C460.7 327 471.3 306 482 299.2C492.7 292.3 503.3 299.7 514 298.8C524.7 298 535.3 289 546.2 280.2C557 271.3 568 262.7 578.8 269.8C589.7 277 600.3 300 611 305.7C621.7 311.3 632.3 299.7 643 298.3C653.7 297 664.3 306 675 316.3C685.7 326.7 696.3 338.3 707 329.3C717.7 320.3 728.3 290.7 739 279.8C749.7 269 760.3 277 771.2 285.7C782 294.3 793 303.7 803.8 314.3C814.7 325 825.3 337 836 332.8C846.7 328.7 857.3 308.3 868 293C878.7 277.7 889.3 267.3 894.7 262.2L900 257L900 601L894.7 601C889.3 601 878.7 601 868 601C857.3 601 846.7 601 836 601C825.3 601 814.7 601 803.8 601C793 601 782 601 771.2 601C760.3 601 749.7 601 739 601C728.3 601 717.7 601 707 601C696.3 601 685.7 601 675 601C664.3 601 653.7 601 643 601C632.3 601 621.7 601 611 601C600.3 601 589.7 601 578.8 601C568 601 557 601 546.2 601C535.3 601 524.7 601 514 601C503.3 601 492.7 601 482 601C471.3 601 460.7 601 450 601C439.3 601 428.7 601 418 601C407.3 601 396.7 601 386 601C375.3 601 364.7 601 353.8 601C343 601 332 601 321.2 601C310.3 601 299.7 601 289 601C278.3 601 267.7 601 257 601C246.3 601 235.7 601 225 601C214.3 601 203.7 601 193 601C182.3 601 171.7 601 161 601C150.3 601 139.7 601 128.8 601C118 601 107 601 96.2 601C85.3 601 74.7 601 64 601C53.3 601 42.7 601 32 601C21.3 601 10.7 601 5.3 601L0 601Z" fill="#6F5A49" stroke-linecap="round" stroke-linejoin="miter"></path></svg>