<svg id="visual" viewBox="0 0 900 600" width="900" height="600" xmlns="http://www.w3.org/2000/svg" xmlns:xlink="http://www.w3.org/1999/xlink" version="1.1"><rect x="0" y="0" width="900" height="600" fill="#6F5A49"></rect><path d="M0 404L21.5 385.7C43 367.3 86 330.7 128.8 322.2C171.7 313.7 214.3 333.3 257.2 345C300 356.7 343 360.3 385.8 362.8C428.7 365.3 471.3 366.7 514.2 360.7C557 354.7 600 341.3 642.8 331.2C685.7 321 728.3 314 771.2 304.3C814 294.7 857 282.3 878.5 276.2L900 270L900 601L878.5 601C857 601 814 601 771.2 601C728.3 601 685.7 601 642.8 601C600 601 557 601 514.2 601C471.3 601 428.7 601 385.8 601C343 601 300 601 257.2 601C214.3 601 171.7 601 128.8 601C86 601 43 601 21.5 601L0 601Z" fill="#7F938C" stroke-linecap="round" stroke-linejoin="miter"></path></svg>